<?xml version="1.0" standalone="no"?>
<!DOCTYPE svg PUBLIC "-//W3C//DTD SVG 20010904//EN"
 "http://www.w3.org/TR/2001/REC-SVG-20010904/DTD/svg10.dtd">
<svg version="1.0" xmlns="http://www.w3.org/2000/svg"
 width="431.000000pt" height="431.000000pt" viewBox="0 0 431.000000 431.000000"
 preserveAspectRatio="xMidYMid meet">
<metadata>
Created by potrace 1.11, written by Peter Selinger 2001-2013
</metadata>
<g transform="translate(0.000000,431.000000) scale(0.100000,-0.100000)"
fill="#000000" stroke="none">
<path d="M1102 3797 c-42 -42 -52 -59 -52 -86 0 -25 -4 -32 -14 -28 -8 3 -30
9 -50 12 -32 7 -39 3 -86 -41 -42 -42 -50 -55 -50 -86 l0 -37 -47 14 -48 15
-52 -52 -53 -52 2 -1001 3 -1000 95 -25 95 -25 3 -102 c3 -103 3 -103 30 -109
15 -3 41 -10 57 -14 17 -5 49 -14 73 -20 l42 -11 0 -99 0 -98 33 -11 c17 -5
203 -55 412 -111 209 -55 403 -107 430 -115 28 -8 160 -44 295 -80 135 -36
376 -100 535 -143 l290 -79 53 51 c44 43 52 56 52 87 l0 37 47 -14 47 -14 53
52 c43 43 53 59 53 86 0 31 2 34 25 28 14 -3 36 -9 48 -12 19 -4 35 5 75 44
l52 50 0 1001 0 1000 -42 11 c-24 6 -69 18 -100 27 l-58 16 0 101 0 101 -100
25 -100 24 0 102 0 102 -47 11 c-27 7 -138 36 -248 66 -415 112 -1334 358
-1425 382 -52 13 -134 35 -182 49 -48 13 -88 24 -90 24 -2 0 -27 -24 -56 -53z"/>
</g>
</svg>
